#!OML:ASF F:\VICON\USERDATA\INSTALL\rory3\rory3.ASF
:FULLY-SPECIFIED
:DEGREES
3452
root 9.13673 17.8374 -10.425 -721.365 -8.3091 -722.052
lowerback 12.1452 2.47812 0.613218
upperback 0.325096 3.40594 0.464068
thorax -6.46168 1.65343 -0.452079
lowerneck -16.9533 -6.92074 -11.4353
upperneck 35.9951 -10.2364 9.25161
head 17.1373 -4.58678 4.1097
rclavicle -6.87671e-015 1.98785e-015
rhumerus -36.1474 -17.6699 -68.8037
rradius 32.3003
rwrist 4.52036
rhand -19.3384 7.61705
rfingers 7.12502
rthumb 6.97847 -22.2479
lclavicle -6.87671e-015 1.98785e-015
lhumerus -35.503 19.7297 73.6802
lradius 30.6278
lwrist -6.48069
lhand -18.1897 21.5534
lfingers 7.12502
lthumb 8.08725 51.3787
rfemur -8.43109 -1.96097 21.7163
rtibia 29.0574
rfoot -16.706 2.08056
rtoes -7.26978
lfemur -12.07 1.82166 -17.2152
ltibia 35.5605
lfoot -18.9192 -8.60121
ltoes -20.4804
3453
root 9.10268 17.8262 -10.4216 -721.369 -8.50794 -721.984
lowerback 12.1962 2.50608 0.517424
upperback 0.223316 3.43507 0.51451
thorax -6.60711 1.66998 -0.356005
lowerneck -16.8011 -6.84735 -11.4259
upperneck 36.1151 -10.1275 9.17643
head 17.1383 -4.55673 4.10513
rclavicle 3.76014e-014 2.6339e-015
rhumerus -36.2708 -17.538 -68.5009
rradius 32.3219
rwrist 4.31108
rhand -19.141 7.95816
rfingers 7.12502
rthumb 7.16908 -21.9004
lclavicle 3.76014e-014 2.6339e-015
lhumerus -35.7949 19.795 73.6471
lradius 30.5716
lwrist -6.58327
lhand -18.297 21.6539
lfingers 7.12502
lthumb 7.98365 51.4831
rfemur -8.61216 -2.04813 21.736
rtibia 29.386
rfoot -16.9796 2.4036
rtoes -7.14075
lfemur -12.0787 2.154 -17.865
ltibia 35.3981
lfoot -19.1663 -9.04337
ltoes -20.2143
3454
root 9.06881 17.8175 -10.4157 -721.334 -8.65793 -721.893
lowerback 12.0017 2.53651 0.386535
upperback 0.26765 3.45819 0.556018
thorax -6.4611 1.68768 -0.232573
lowerneck -16.9179 -6.8036 -11.4172
upperneck 36.2393 -10.0815 9.21884
head 17.2306 -4.52844 4.13731
rclavicle -1.71452e-015 -1.46604e-014
rhumerus -36.1268 -17.718 -68.2391
rradius 32.3021
rwrist 4.43082
rhand -19.0421 7.94478
rfingers 7.12502
rthumb 7.26451 -21.9105
lclavicle -1.71452e-015 -1.46604e-014
lhumerus -35.8216 19.9536 73.6763
lradius 30.5284
lwrist -6.6168
lhand -18.4674 21.924
lfingers 7.12502
lthumb 7.81925 51.7594
rfemur -8.84893 -2.05366 21.7399
rtibia 29.7518
rfoot -17.2737 2.61288
rtoes -6.91329
lfemur -12.0731 2.46191 -18.5313
ltibia 35.1567
lfoot -19.4453 -9.41472
ltoes -20.3955
3455
root 9.03455 17.807 -10.412 -721.287 -8.79251 -721.916
lowerback 11.7804 2.56433 0.405235
upperback 0.377106 3.49548 0.567847
thorax -6.22041 1.70789 -0.22312
lowerneck -17.1175 -6.81557 -11.3556
upperneck 36.2692 -10.1648 9.36442
head 17.3191 -4.52885 4.17476
rclavicle -2.45126e-014 -6.4605e-016
rhumerus -35.816 -18.0763 -68.0827
rradius 32.2181
rwrist 4.62177
rhand -19.0082 7.75597
rfingers 7.12502
rthumb 7.29723 -22.0982
lclavicle -2.45126e-014 -6.4605e-016
lhumerus -35.6281 20.0966 73.629
lradius 30.4152
lwrist -6.52777
lhand -18.2319 21.8101
lfingers 7.12502
lthumb 8.04651 51.637
rfemur -9.06215 -1.81193 21.8918
rtibia 30.1306
rfoot -17.4662 2.61126
rtoes -6.01428
lfemur -12.0402 2.69975 -19.0413
ltibia 34.8508
lfoot -19.5092 -10.0543
ltoes -19.4712
3456
root 8.99782 17.7966 -10.4096 -721.282 -9.00513 -721.825
lowerback 11.7746 2.59234 0.20152
upperback 0.346528 3.50742 0.594901
thorax -6.26361 1.71984 -0.0834424
lowerneck -17.0862 -6.75819 -11.3424
upperneck 36.2708 -10.1187 9.44206
head 17.3098 -4.49989 4.21946
rclavicle -3.10601e-014 -7.0817e-015
rhumerus -35.696 -18.3001 -67.8585
rradius 32.1277
rwrist 4.84284
rhand -18.8498 7.97658
rfingers 7.12502
rthumb 7.45018 -21.8722
lclavicle -3.10601e-014 -7.0817e-015
lhumerus -35.769 20.3256 73.4708
lradius 30.35
lwrist -6.46034
lhand -18.0069 21.7802
lfingers 7.12502
lthumb 8.26366 51.5986
rfemur -9.25979 -1.67199 21.9231
rtibia 30.5145
rfoot -17.6531 2.66187
rtoes -5.83456
lfemur -11.9541 3.05217 -19.6247
ltibia 34.4943
lfoot -19.2166 -10.788
ltoes -17.7283
3457
root 8.96227 17.7889 -10.4051 -721.221 -9.23949 -721.685
lowerback 11.8085 2.6049 -0.101233
upperback 0.193606 3.48804 0.636349
thorax -6.46567 1.71915 0.126656
lowerneck -16.9691 -6.64249 -11.3096
upperneck 36.3696 -9.96155 9.40158
head 17.3012 -4.44196 4.23545
rclavicle 8.31945e-015 -9.69075e-016
rhumerus -35.7842 -18.2047 -67.676
rradius 32.1847
rwrist 5.01761
rhand -18.9014 7.87207
rfingers 7.12502
rthumb 7.40034 -21.9785
lclavicle 8.31945e-015 -9.69075e-016
lhumerus -36.2642 20.4062 73.3078
lradius 30.4841
lwrist -6.27581
lhand -17.8613 22.3131
lfingers 7.12502
lthumb 8.40417 52.1259
rfemur -9.51809 -1.62737 21.8881
rtibia 30.8911
rfoot -17.9014 2.78123
rtoes -5.78214
lfemur -11.8997 3.40985 -20.2235
ltibia 34.1124
lfoot -18.8643 -11.1446
ltoes -15.7228
3458
root 8.92879 17.7782 -10.3971 -721.235 -9.35623 -721.635
lowerback 11.8393 2.58534 -0.242335
upperback 0.0784809 3.44578 0.659017
thorax -6.61476 1.70284 0.232015
lowerneck -16.8023 -6.55766 -11.254
upperneck 36.4662 -9.90258 9.44897
head 17.3008 -4.41109 4.26835
rclavicle 2.87306e-015 -3.81418e-015
rhumerus -35.9787 -17.9786 -67.6203
rradius 32.4641
rwrist 4.86405
rhand -18.9922 7.51892
rfingers 7.12502
rthumb 7.31271 -22.3347
lclavicle 2.87306e-015 -3.81418e-015
lhumerus -36.7597 20.3879 73.0764
lradius 30.6041
lwrist -6.05984
lhand -17.7951 22.6642
lfingers 7.12502
lthumb 8.46812 52.4744
rfemur -9.63795 -1.66082 21.9446
rtibia 31.2344
rfoot -18.1638 2.82772
rtoes -6.22701
lfemur -11.7348 3.63305 -20.6622
ltibia 33.7182
lfoot -18.4965 -11.3024
ltoes -12.9634
